<svg width="300" height="300" viewBox="0 0 300 300" fill="none" xmlns="http://www.w3.org/2000/svg">
<!-- <path d="M169.105 1.22185C139.679 -2.55701 109.793 2.47518 83.2268 15.682C56.6605 28.8888 34.6072 49.6771 19.8559 75.4179C5.10456 101.159 -1.68227 130.696 0.353697 160.294C2.38966 189.892 13.157 218.221 31.294 241.7C49.431 265.178 74.123 282.751 102.247 292.196C130.372 301.641 160.665 302.533 189.297 294.761C217.929 286.988 243.613 270.9 263.101 248.53C282.588 226.16 295.005 198.514 298.78 169.087C303.842 129.631 293.024 89.7803 268.706 58.3002C244.387 26.82 208.561 6.28857 169.105 1.22185V1.22185Z" stroke="#A6A6A6"/> -->
<path d="M108.447 159.48C108.506 159.599 108.603 159.694 108.724 159.748C108.844 159.803 108.98 159.814 109.107 159.78L133.107 154.605L123.012 144.375L108.627 158.76C108.514 158.837 108.433 158.953 108.399 159.085C108.366 159.218 108.383 159.359 108.447 159.48Z" fill="white"/>
<path d="M220.826 56.4298C217.482 56.4332 214.181 57.1868 211.166 58.6349C208.151 60.0831 205.499 62.189 203.406 64.7976C201.313 67.4062 199.831 70.4511 199.071 73.7081C198.31 76.9651 198.289 80.3512 199.01 83.6171C199.732 86.8831 201.176 89.9457 203.238 92.5795C205.299 95.2133 207.925 97.3512 210.922 98.8358C213.919 100.32 217.211 101.114 220.555 101.158C223.9 101.202 227.211 100.495 230.246 99.0898L215.036 83.8798C214.862 83.7056 214.723 83.4987 214.629 83.2709C214.534 83.0431 214.486 82.7989 214.486 82.5523C214.486 82.3057 214.534 82.0615 214.629 81.8337C214.723 81.6059 214.862 81.399 215.036 81.2248L234.911 61.3648C230.92 58.1556 225.948 56.4135 220.826 56.4298V56.4298Z" fill="white"/>
<path d="M237.642 63.9453L219.012 82.5003L233.622 97.1103C234.698 96.3543 235.702 95.5007 236.622 94.5603C240.626 90.529 242.957 85.132 243.146 79.4532C243.335 73.7743 241.369 68.2342 237.642 63.9453V63.9453Z" fill="white"/>
<path d="M200.364 98.1896H200.034C199.647 98.1867 199.26 98.2218 198.879 98.2946H198.744C198.326 98.3848 197.915 98.5051 197.514 98.6546L197.199 98.8046C196.897 98.9307 196.607 99.0812 196.329 99.2546L195.999 99.4646C195.636 99.7152 195.295 99.9962 194.979 100.305L139.734 155.565L146.574 162.405L205.074 111.06C205.405 110.77 205.706 110.448 205.974 110.1L206.229 109.77C206.429 109.477 206.609 109.171 206.769 108.855C206.859 108.675 206.934 108.495 207.009 108.315C207.11 108.075 207.195 107.83 207.264 107.58C207.264 107.4 207.369 107.22 207.414 107.04C207.488 106.668 207.538 106.292 207.564 105.915V105.42C207.564 105.15 207.564 104.88 207.564 104.61C207.564 104.34 207.564 104.25 207.489 104.07C207.212 102.654 206.521 101.353 205.504 100.33C204.486 99.3072 203.188 98.6094 201.774 98.3246H201.489C201.118 98.2532 200.742 98.2081 200.364 98.1896Z" fill="white"/>
<path d="M125.59 141.721L136.93 153.001L192.325 97.6058C194.127 95.8437 196.476 94.7485 198.985 94.5008C189.19 87.0008 178.51 88.9658 125.59 141.721Z" fill="white"/>
<path d="M208.194 113.221L207.519 113.881L149.02 165.211L158.965 175.141C183.624 151.816 205.509 129.601 208.194 113.221Z" fill="white"/>
<path d="M62.2767 233.474C62.3071 233.581 62.3695 233.675 62.4553 233.745C62.5412 233.814 62.6464 233.856 62.7567 233.864L88.2566 235.619L73.9617 221.324L62.3967 232.874C62.3217 232.952 62.2706 233.05 62.2494 233.157C62.2281 233.263 62.2376 233.373 62.2767 233.474V233.474Z" fill="white"/>
<path d="M76.6289 218.669L91.7039 233.744C91.8828 233.936 92.1222 234.06 92.3817 234.095C92.6413 234.131 92.9051 234.076 93.1289 233.939C93.3626 233.823 93.5487 233.63 93.6554 233.392C93.7621 233.154 93.7828 232.886 93.7139 232.634L91.1789 221.804C91.0147 221.103 91.0893 220.366 91.3909 219.711C91.6924 219.056 92.2037 218.521 92.8439 218.189C119.274 204.944 140.589 191.309 156.234 177.689L145.734 167.189L123.234 172.034L76.6289 218.669Z" fill="white"/>
<path d="M142.511 164.009L136.871 158.369L129.071 166.154C129.015 166.222 128.984 166.306 128.984 166.394C128.984 166.482 129.015 166.567 129.071 166.634C129.107 166.714 129.172 166.778 129.252 166.814C129.332 166.85 129.422 166.855 129.506 166.829L142.511 164.009Z" fill="white"/>
<path d="M238.166 76.0349C238.089 75.7988 237.962 75.5819 237.794 75.3988C237.627 75.2157 237.422 75.0706 237.193 74.9733C236.965 74.8759 236.718 74.8286 236.47 74.8345C236.222 74.8403 235.978 74.8992 235.754 75.0072C235.531 75.1152 235.333 75.2698 235.174 75.4606C235.015 75.6514 234.899 75.874 234.833 76.1134C234.768 76.3529 234.754 76.6036 234.793 76.8488C234.832 77.0939 234.924 77.3279 235.061 77.5349C235.509 78.437 235.686 79.4494 235.572 80.4502C235.457 81.4509 235.056 82.3972 234.416 83.1749C234.205 83.4289 234.071 83.7375 234.03 84.0647C233.988 84.3919 234.04 84.7242 234.18 85.0229C234.32 85.3217 234.542 85.5744 234.82 85.7518C235.098 85.9292 235.421 86.0239 235.751 86.0248C236.005 86.0221 236.257 85.9644 236.487 85.8557C236.717 85.7469 236.922 85.5898 237.086 85.3949C238.147 84.104 238.814 82.5343 239.005 80.874C239.197 79.2138 238.905 77.5335 238.166 76.0349V76.0349Z" fill="#A6A6A6"/>
</svg>
